# xmcd
#
# Track frame offsets: 
#        150
#        9150
#        28677
#        46137
#        62352
#        82604
#        88659
#        106737
#        125415
#        138785
#        154444
#        173871
#        189585
#        203782
#        220036
#        238114
#        256643
#        269193
#
# Disc length: 3802 seconds
#
# Revision: 0
# Processed by: cddbd v1.5.2PL0 Copyright (c) Steve Scherf et al.
# Submitted via: ExactAudioCopy v0.99pb5
#
DISCID=e50ed812
DTITLE=Kriso - Nappo EP
DYEAR=2010
DGENRE=Rap
TTITLE0=Sisäänheittobreikki
TTITLE1=Tuplaaja
TTITLE2=Nappo (feat. Are)
TTITLE3=Yksinkertanen
TTITLE4=Niin se menee
TTITLE5=Skitti
TTITLE6=G-Talo
TTITLE7=Työttömän arki
TTITLE8=Täytebiisi nro.2
TTITLE9=Nappo (90's Remix)
TTITLE10=Tuplaaja (Instumental)
TTITLE11=Nappo (Instrumental)
TTITLE12=Yksinkertanen (Instrumental)
TTITLE13=Niin se menee (Instrumental)
TTITLE14=G-Talo (Instrumental)
TTITLE15=Työttömän arki (Instrumental)
TTITLE16=Täytebiisi nro.2 (Instrumental)
TTITLE17=Nappo (90's remix) (Instrumental)
EXTD=
EXTT0=
EXTT1=
EXTT2=
EXTT3=
EXTT4=
EXTT5=
EXTT6=
EXTT7=
EXTT8=
EXTT9=
EXTT10=
EXTT11=
EXTT12=
EXTT13=
EXTT14=
EXTT15=
EXTT16=
EXTT17=
PLAYORDER=
